<svg width="153" height="31" viewBox="0 0 153 31" fill="none" xmlns="http://www.w3.org/2000/svg">
<g clip-path="url(#clip0_110_2)">
<path d="M1.75621 15.7321C1.22295 15.8513 0.711015 15.9284 0.206192 15.9704C0.263073 16.2929 0.348396 16.6014 0.426608 16.9168C1.38648 17.2253 2.5881 17.2113 3.95326 16.8607C6.2854 16.2649 8.7313 14.7927 10.8359 12.7177C12.9405 10.6426 14.4337 8.22408 15.038 5.93172C15.3864 4.58575 15.4006 3.40101 15.0949 2.45462C14.7821 2.3705 14.4621 2.29339 14.135 2.2373C14.0924 2.72802 14.0142 3.23977 13.8933 3.76555C13.2818 6.38038 11.6891 9.06532 9.41388 11.3086C7.13862 13.5519 4.41542 15.1292 1.75621 15.7321Z" fill="black"/>
<path d="M0.156424 11.8975C0.0639917 12.4863 0.00711018 13.0752 0 13.6711C0.39106 13.643 0.803451 13.5799 1.23006 13.4818C3.46266 12.97 5.78058 11.6241 7.7501 9.68222C9.71962 7.74037 11.0919 5.44801 11.6038 3.25379C11.7034 2.83318 11.7602 2.42658 11.7958 2.04102C11.1985 2.04102 10.5942 2.0971 10.004 2.18823C9.37122 4.32637 8.07005 6.43646 6.27118 8.21006C4.46519 9.99067 2.32503 11.2736 0.156424 11.8975Z" fill="black"/>
<path d="M10.8644 26.0092C14.1066 26.1634 17.4057 25.0207 19.8801 22.5811C22.3544 20.1345 23.5205 16.8888 23.3569 13.6851C22.3828 16.2088 20.6337 18.7886 18.33 21.0529C16.0406 23.3172 13.424 25.0488 10.8644 26.0092Z" fill="black"/>
<path d="M7.33771 2.93132C5.937 3.50616 4.62873 4.35441 3.4911 5.47605C2.35347 6.5977 1.50025 7.88759 0.917213 9.26861C2.24682 8.67274 3.54087 7.77542 4.68561 6.64677C5.83035 5.51811 6.73334 4.24224 7.33771 2.93132Z" fill="black"/>
<path d="M7.13151 22.8615C6.38494 23.0859 5.66681 23.2261 4.98424 23.3032C6.01521 23.9832 7.64344 24.0603 9.5703 23.4925C12.0518 22.7634 14.6967 21.095 17.0218 18.8096C19.3397 16.5242 21.0248 13.9164 21.7643 11.4628C22.3402 9.55603 22.262 7.94367 21.5652 6.93419C21.2097 10.201 19.1548 14.0917 15.6922 17.5057C13.0685 20.0925 10.0254 21.9993 7.13151 22.8615Z" fill="black"/>
<path d="M17.3773 6.52058C16.6734 9.22655 14.9527 12.0236 12.5495 14.4001C10.1391 16.7696 7.30215 18.4661 4.55762 19.1671C3.47687 19.4405 2.45301 19.5527 1.50735 19.5036C1.69933 19.8401 1.91264 20.1696 2.13305 20.4921C3.16403 20.9898 4.65717 20.9898 6.39916 20.478C8.90194 19.735 11.5683 18.0525 13.9004 15.7461C16.2468 13.4397 17.9461 10.8109 18.6998 8.34325C19.2259 6.62573 19.2259 5.15357 18.7211 4.13708C18.394 3.91275 18.0599 3.70245 17.7186 3.51317C17.7683 4.44554 17.6546 5.46203 17.3773 6.52058Z" fill="black"/>
<path d="M35.6127 14.1835C35.4754 14.7522 35.2282 15.1043 35.0085 15.1313C34.4317 15.2397 34.8712 14.4814 34.8162 14.1835C34.7338 13.7503 34.0472 14.1835 34.0472 14.5356C34.0472 15.1043 34.2669 15.7 34.7338 16.2958L34.8162 16.3228C36.0522 15.3209 38.5241 14.6981 38.5515 14.6981C38.5515 14.6981 38.6889 14.7251 38.6889 14.8335C38.7163 14.9147 38.579 15.1043 38.579 15.1043C37.7001 15.1043 35.1458 16.8644 35.0634 16.8644C35.6677 17.8664 35.0634 19.437 34.0472 20.0598C33.6352 20.4119 33.1134 20.6285 32.5366 20.7097C31.8225 20.6014 31.4654 20.3848 31.4654 20.0328V19.8432C31.4654 19.3016 33.7725 17.1894 34.1845 16.8644C34.2395 16.7832 34.2395 16.8103 34.2395 16.729C33.6077 15.8354 33.3056 15.1313 33.3056 14.5897C33.4704 12.6671 35.6127 13.4795 35.6127 14.1835ZM32.2619 19.9515V19.9786C32.2619 20.0598 32.3718 20.114 32.5366 20.114C33.2507 20.114 35.0085 18.5434 34.6514 17.4602L34.6789 17.2165L34.5141 17.4602C33.2507 18.4621 32.2619 19.6807 32.2619 19.9515ZM48.3856 16.5124C48.3856 16.5124 48.5229 16.377 48.7152 16.4582C48.9349 16.5666 48.7152 16.8103 48.7152 16.8103C48.0285 17.6497 45.9686 19.2474 44.87 19.2474C44.5129 19.2474 44.3207 19.112 44.2108 18.9766C43.9911 18.7058 43.8538 18.1913 44.5129 16.4853C42.453 18.8412 41.7938 18.6246 41.5741 18.5705C41.4093 18.5163 41.0797 18.3538 41.0523 17.7851V17.7581C40.9699 16.6207 42.6178 13.3441 43.1671 13.3712C43.1671 13.3712 43.5791 13.5066 43.5791 13.6961C43.5516 14.0482 43.3319 14.3189 43.1671 14.2919C42.6727 14.0211 41.7938 16.8374 41.8213 17.731C41.8213 17.7581 41.8488 17.7851 41.8488 17.8122C42.1784 17.731 43.1397 16.9998 44.6228 15.1313C45.0897 14.5627 45.4193 14.1565 45.639 13.9128C45.8587 13.642 46.0785 13.3712 46.3806 13.6149C46.4905 13.6961 46.6278 13.9128 46.463 14.1565C45.4468 16.1062 44.7052 18.0559 44.8151 18.4621C44.9524 18.8683 45.6665 18.6517 46.6003 18.0289C47.287 17.5685 48.0285 16.9457 48.3856 16.5124ZM60.3619 0.806211C60.6915 1.02285 60.3619 1.56444 60.3619 1.56444C58.5217 5.19311 54.7315 12.8566 52.4244 18.1101C52.8364 17.7039 53.2483 17.406 53.7153 17.3519C54.0998 17.2977 54.4568 17.406 54.7864 17.7039C54.8688 17.7851 55.0336 18.0018 55.116 18.1101C55.7202 17.2977 56.297 16.5124 56.7639 15.9708C57.0111 15.6729 57.1485 15.348 57.2858 15.2126C57.6428 14.8335 58.1372 15.2397 57.8351 15.5646C57.7252 15.6729 57.4506 15.9437 57.1485 16.2958C56.709 16.8915 56.1322 17.7581 55.4181 18.7058C55.6378 19.3828 55.6104 20.1952 55.3357 21.0889C54.8413 22.6595 53.5505 24.3926 52.2321 24.5821H52.0948C51.7103 24.5821 51.5455 24.3384 51.518 24.2301C51.3807 23.9864 51.106 23.3635 53.935 19.4099C54.1272 19.1662 54.3195 18.8954 54.5118 18.6246C54.4568 18.4892 54.347 18.3809 54.2371 18.2726C54.0448 18.1101 53.9075 18.1101 53.8251 18.1101C53.2483 18.1913 51.9025 20.1681 51.0511 21.4409C50.7215 22.3345 50.5293 23.0115 50.5293 23.3365C50.5293 23.3365 50.4194 23.5802 50.0898 23.5802C49.7328 23.5802 49.7328 23.3365 49.7328 23.3365C49.7328 20.8722 58.6316 3.2163 59.6478 1.23949C59.6478 1.23949 60.0323 0.589574 60.3619 0.806211ZM54.7864 19.5995C54.7315 19.6536 54.704 19.6807 54.6766 19.7349C52.9462 22.145 52.3694 23.3365 52.2596 23.7697C53.0836 23.5531 54.1547 22.2262 54.5942 20.8451C54.6766 20.5743 54.7864 20.0869 54.7864 19.5995ZM66.5705 16.025C66.6254 16.4041 66.0487 16.3228 66.0487 16.3228C65.7465 16.377 65.417 16.5666 65.1423 16.6749C64.181 16.9998 63.412 17.6768 62.588 18.2997C60.7203 23.0657 57.9738 29.5648 56.2984 30.7563C56.0512 30.9188 55.8315 31 55.6667 31C55.5294 31 55.4195 30.9458 55.3096 30.8917C54.9526 30.675 54.8427 30.1335 54.98 29.1857C55.392 26.7485 57.8639 21.0076 61.9288 17.8122C62.5056 16.2958 63.0275 14.8876 63.4394 13.7503C62.3408 14.7251 61.3246 15.9437 61.1049 16.1874C61.0499 16.2687 60.8302 16.6478 60.583 16.6478C60.3084 16.6478 60.3358 16.4582 60.4457 16.3499C60.9126 15.8083 63.2746 12.8025 64.2909 12.5588C64.5381 12.5046 64.5381 13.0462 64.5381 13.0462C64.4557 13.2628 63.824 15.023 63 17.1894C63.6042 16.8103 64.2909 16.4312 64.95 16.1874C65.2522 16.0791 65.6092 15.9979 65.9663 15.9166C65.9663 15.9166 66.5156 15.6458 66.5705 16.025ZM55.8315 30.1064C57.1498 29.1857 59.4295 24.0947 61.2971 19.4099C59.1548 21.495 57.5069 24.3113 56.5181 26.7485C55.7491 28.7253 55.6667 29.8627 55.7491 30.1876C55.7491 30.1605 55.804 30.1605 55.8315 30.1064ZM65.1148 10.9882C65.1698 11.2589 65.1972 11.4756 64.95 11.5297C64.7028 11.5568 64.4831 11.3402 64.4282 11.0694C64.4007 10.7986 64.5655 10.5278 64.7852 10.5007C65.0324 10.4736 65.1698 10.6903 65.1148 10.9882ZM76.4045 15.0501C76.6517 15.2397 76.2947 15.4563 76.2947 15.4563C76.0749 15.7 72.9988 19.1662 70.6917 18.9496C70.6093 18.9496 70.5269 18.9225 70.4445 18.9225C70.1699 18.8683 69.8128 18.6788 69.5931 18.1643C68.9888 16.6478 69.9776 15.0501 71.1586 14.1835C71.9002 13.642 72.5594 13.5066 72.9439 13.8315C73.1361 13.9669 73.246 14.1835 73.2185 14.4273C73.1911 15.2397 71.6805 16.3228 71.2136 16.6207C71.2136 16.6207 71.0213 16.6749 70.8016 16.4582C70.5818 16.2145 70.7741 15.9708 70.7741 15.9708C71.5981 15.4292 72.3396 14.7251 72.422 14.4273C72.2572 14.4273 71.7629 14.6168 71.1861 15.1855C70.5269 15.8625 69.9501 16.9186 70.3347 17.8664C70.7192 18.5975 71.7354 18.2184 72.5594 17.8935C73.4383 17.5685 75.3334 15.9166 75.7728 15.4021C75.7728 15.4021 76.0475 14.7251 76.4045 15.0501ZM85.3871 15.023C85.6343 15.2397 85.2773 15.4292 85.2773 15.4292C84.9477 15.8354 81.7892 18.9766 79.949 18.9766C79.7292 18.9766 79.537 18.9225 79.3722 18.8412C79.0975 18.7058 78.6581 18.3267 78.7405 17.3789C78.8778 16.025 80.0863 14.0211 81.3497 13.5878C81.899 13.3982 82.3659 13.4253 82.6681 13.6961C83.2174 14.1565 82.723 14.9959 82.6955 15.1043C82.6955 15.1043 82.5582 15.3751 82.2561 15.348C81.9814 15.348 81.7892 15.023 81.7892 15.023C81.8441 14.8064 82.2835 14.4002 82.1737 14.2919C82.0638 14.2106 81.8715 14.2377 81.5969 14.3189C80.7455 14.6168 79.6468 16.2958 79.537 17.4602C79.5095 17.7039 79.537 18.2726 79.7567 18.3809C80.5532 18.8142 83.8216 16.5124 84.7554 15.3751C84.7554 15.3751 85.0301 14.7251 85.3871 15.023ZM113.733 3.70373C114.2 3.89329 113.623 4.35364 113.431 4.2724H113.403C110.465 3.02674 102.06 2.8101 95.4134 3.05382C92.3373 8.60514 88.1076 16.3228 88.2999 20.7368C88.3273 20.9264 88.3823 21.1159 88.4921 21.1701C89.5358 21.6846 91.4859 17.7581 92.2 16.6749C92.2 16.6749 92.4472 16.025 92.8042 16.3228C93.0514 16.5395 92.7218 16.729 92.7218 16.729C92.3648 17.1352 89.8379 21.82 88.6569 21.7388C87.5583 21.6575 87.5308 20.7368 87.5308 20.7368C87.366 16.1604 91.3485 8.84886 94.3972 3.13506C89.8379 3.32462 86.2125 3.75789 86.1301 3.78497C86.1301 3.78497 85.6906 3.59541 85.6906 3.29754C85.6906 2.89134 86.2125 2.75595 86.2125 2.75595C86.597 2.75595 90.3048 2.51223 94.8916 2.40391C95.6057 1.04993 95.9902 0.454176 96.0726 0.291698C96.0726 0.291698 96.4297 -0.141576 96.8966 0.0479814C97.2536 0.210459 97.1163 0.670813 97.1163 0.670813C97.1163 0.697893 96.6219 1.15825 95.9353 2.37683C102.5 2.24143 110.684 2.40391 113.733 3.70373ZM114.065 15.9437C114.23 15.5917 114.615 15.7 114.56 15.8354C113.269 18.8683 110.33 21.3867 109.506 21.3867C109.424 21.3867 109.369 21.3597 109.341 21.3597C109.204 21.3326 108.902 21.1972 108.902 20.7097C108.874 20.0057 109.424 18.9766 110.028 17.8122C110.385 17.0811 110.742 16.3228 110.934 15.7271C111.154 15.1313 111.099 14.8064 111.072 14.7251C110.302 14.5085 109.094 16.4312 108.462 17.4873C107.803 18.5434 107.528 18.9766 107.089 18.8954C106.979 18.8954 106.759 18.8142 106.677 18.4351C106.402 17.1623 107.913 14.671 108.05 14.4002C108.05 14.4002 108.243 13.7503 108.874 14.1835C109.176 14.3731 108.627 14.7522 108.627 14.7522C108.215 15.4563 107.666 16.6749 107.501 17.5414C107.583 17.3789 107.693 17.2165 107.776 17.0811C108.737 15.5105 110.055 13.3982 111.456 14.0482L111.511 14.0752L111.566 14.1023C112.335 14.7522 111.593 16.2687 110.742 18.0289C110.302 18.8954 109.836 19.8703 109.726 20.466C110.55 20.5743 112.802 18.5163 114.065 15.9437ZM124.888 14.4002C124.916 14.7251 124.504 14.6439 124.504 14.6439C124.311 14.671 123.652 14.6981 122.773 14.671C122.416 14.671 122.087 14.671 121.977 14.6981C122.004 15.348 121.757 16.1062 121.372 16.8103C120.741 17.8935 119.725 18.8683 118.736 18.8683C118.489 18.8683 118.241 18.8142 117.994 18.6788C117.61 18.4621 117.39 18.1372 117.308 17.731C117.033 16.1062 119.999 12.9108 120.274 12.6129C120.274 12.6129 120.603 12.288 120.823 12.4234C121.18 12.6671 120.878 13.0191 120.878 13.0191C119.889 14.0752 117.939 16.6749 118.077 17.5956C118.104 17.7851 118.186 18.083 118.351 18.1643C119.065 18.5434 120.082 17.4602 120.658 16.4312C121.015 15.8354 121.208 15.1584 121.18 14.671C120.823 14.5897 120.603 14.4543 120.521 14.2377C120.384 13.9398 120.576 13.6149 120.796 13.4253L121.015 13.2628L121.263 13.3982C121.482 13.5336 121.647 13.6961 121.784 13.9128C121.922 14.0752 122.114 14.1565 122.306 14.2106C123.048 14.2919 123.735 14.2919 124.174 14.2377C124.174 14.2377 124.833 13.9398 124.888 14.4002ZM152.822 3.70373C153.289 3.89329 152.712 4.35364 152.52 4.2724H152.492C149.553 3.02674 141.149 2.8101 134.502 3.05382C131.426 8.60514 127.197 16.3228 127.389 20.7368C127.416 20.9264 127.471 21.1159 127.581 21.1701C128.625 21.6846 130.575 17.7581 131.289 16.6749C131.289 16.6749 131.536 16.025 131.893 16.3228C132.14 16.5395 131.811 16.729 131.811 16.729C131.454 17.1352 128.927 21.82 127.746 21.7388C126.647 21.6575 126.62 20.7368 126.62 20.7368C126.455 16.1604 130.437 8.84886 133.486 3.13506C128.927 3.32462 125.301 3.75789 125.219 3.78497C125.219 3.78497 124.78 3.59541 124.78 3.29754C124.78 2.89134 125.301 2.75595 125.301 2.75595C125.686 2.75595 129.394 2.51223 133.981 2.40391C134.695 1.04993 135.079 0.454176 135.162 0.291698C135.162 0.291698 135.519 -0.141576 135.986 0.0479814C136.343 0.210459 136.205 0.670813 136.205 0.670813C136.205 0.697893 135.711 1.15825 135.024 2.37683C141.588 2.24143 149.773 2.40391 152.822 3.70373ZM141.974 15.0501C142.222 15.2397 141.865 15.4563 141.865 15.4563C141.645 15.7 138.569 19.1662 136.262 18.9496C136.179 18.9496 136.097 18.9225 136.014 18.9225C135.74 18.8683 135.383 18.6788 135.163 18.1643C134.559 16.6478 135.547 15.0501 136.728 14.1835C137.47 13.642 138.129 13.5066 138.514 13.8315C138.706 13.9669 138.816 14.1835 138.788 14.4273C138.761 15.2397 137.25 16.3228 136.783 16.6207C136.783 16.6207 136.591 16.6749 136.371 16.4582C136.152 16.2145 136.344 15.9708 136.344 15.9708C137.168 15.4292 137.909 14.7251 137.992 14.4273C137.827 14.4273 137.333 14.6168 136.756 15.1855C136.097 15.8625 135.52 16.9186 135.904 17.8664C136.289 18.5975 137.305 18.2184 138.129 17.8935C139.008 17.5685 140.903 15.9166 141.343 15.4021C141.343 15.4021 141.617 14.7251 141.974 15.0501ZM147.579 14.1835C147.441 14.7522 147.194 15.1043 146.974 15.1313C146.398 15.2397 146.837 14.4814 146.782 14.1835C146.7 13.7503 146.013 14.1835 146.013 14.5356C146.013 15.1043 146.233 15.7 146.7 16.2958L146.782 16.3228C148.018 15.3209 150.49 14.6981 150.518 14.6981C150.518 14.6981 150.655 14.7251 150.655 14.8335C150.682 14.9147 150.545 15.1043 150.545 15.1043C149.666 15.1043 147.112 16.8644 147.029 16.8644C147.634 17.8664 147.029 19.437 146.013 20.0598C145.601 20.4119 145.079 20.6285 144.503 20.7097C143.788 20.6014 143.431 20.3848 143.431 20.0328V19.8432C143.431 19.3016 145.739 17.1894 146.151 16.8644C146.205 16.7832 146.205 16.8103 146.205 16.729C145.574 15.8354 145.272 15.1313 145.272 14.5897C145.436 12.6671 147.579 13.4795 147.579 14.1835ZM144.228 19.9515V19.9786C144.228 20.0598 144.338 20.114 144.503 20.114C145.217 20.114 146.974 18.5434 146.617 17.4602L146.645 17.2165L146.48 17.4602C145.217 18.4621 144.228 19.6807 144.228 19.9515Z" fill="black"/>
</g>
<defs>
<clipPath id="clip0_110_2">
<rect width="153" height="31" fill="white"/>
</clipPath>
</defs>
</svg>
